<svg width="16" height="16" viewBox="0 0 16 16" fill="#35495E" xmlns="http://www.w3.org/2000/svg" fill-rule="evenodd" clip-rule="evenodd"><path d="M14.9 3h.5c.4 0 .6.3.6.6v10.5c0 .3-.2.5-.6.5h-6c0 .8-.6 1.4-1.4 1.4-.8 0-1.4-.6-1.4-1.4h-6c-.4 0-.6-.2-.6-.5V3.6c0-.3.2-.6.6-.6h14.3z" fill="#cb8252"/><path id="a" d="M7.4 3v-.2c0-.5-.3-.9-.8-.9H1.4c-.2 0-.3.2-.3.3v11c0 .2.1.3.3.3h5.8c.1 0 .2-.1.2-.3V3z" fill="#ecf0f1"/><use href="#a" transform="matrix(-1 0 0 1 16 0)"/><rect id="b" x="6.6" y="3" width="2.8" height="1.1" rx=".5" fill="#95a5a5"/><use href="#b" transform="translate(0 2.8)"/><use href="#b" transform="translate(0 5.6)"/><use href="#b" transform="translate(0 8.29)"/><path d="M11.6 0h1.1c.3 0 .5.2.5.6v.8H11V.6c0-.4.3-.6.6-.6z" fill="#fb7b76"/><path d="M13.5 1.4h-2.7c-.2 0-.3.1-.3.3v1.1c0 .1.1.2.3.2h2.7c.2 0 .3-.1.3-.2V1.7c0-.2-.1-.3-.3-.3z" fill="#95a5a5"/><path d="M12.8 10.2l-.4 1c-.1.1-.2.1-.3.1-.1 0-.2 0-.2-.1l-.5-1h1.4z" fill="#35495e"/><path d="M13.5 8.8l-.7 1.4h-1.4l-.6-1.4h2.7z" fill="#fac176"/><path d="M10.8 3h2.7v5.8h-2.7V3z" fill="#f0c419"/><path d="M12.4 3v1.1c0 .2-.1.3-.3.3-.1 0-.2-.1-.2-.3V3h.5zm0 2.2v3.6h-.5V5.2c0-.1.1-.2.2-.2.2 0 .3.1.3.2z" fill="#f29c1f"/><path id="c" d="M5.2 3.9H2.5c-.2 0-.3-.2-.3-.3 0-.2.1-.3.3-.3h2.7c.2 0 .3.1.3.3 0 .1-.1.3-.3.3z"/><path id="d" d="M3 5.5h-.5c-.2 0-.3-.1-.3-.3 0-.1.1-.2.3-.2H3c.2 0 .3.1.3.2 0 .2-.1.3-.3.3zm2.2 0H4.1c-.1 0-.2-.1-.2-.3 0-.1.1-.2.2-.2h1.1c.2 0 .3.1.3.2 0 .2-.1.3-.3.3z"/><g transform="translate(0 3.3)"><use href="#c"/><use href="#d"/></g><use href="#c" transform="translate(0 6.6)"/></svg>