<svg width="16" height="16" viewBox="0 0 16 16" fill="none" xmlns="http://www.w3.org/2000/svg"><path d="M13.23 2.793h.72c.213 0 .385.172.385.384V4.41h-1.49V3.177c0-.212.172-.384.384-.384z" fill="#575B6D"/><path d="M10.22 2.296H5.78a.576.576 0 00-.51.306L4.308 4.41h7.384L10.73 2.6a.577.577 0 00-.51-.305z" fill="#DBD8DD"/><path d="M.961 3.854h14.078c.53 0 .961.43.961.96v7.929c0 .53-.43.96-.961.96H.961a.96.96 0 01-.961-.96V4.815c0-.53.43-.961.961-.961z" fill="#DBD8DD"/><path d="M0 6.168h16v5.221H0V6.17z" fill="#575B6D"/><path d="M8 12.699a3.92 3.92 0 100-7.84 3.92 3.92 0 000 7.84z" fill="#686D82"/><path d="M10.959 8.779a2.966 2.966 0 11-5.932.012 2.966 2.966 0 015.932-.012z" fill="#419BE9"/><path d="M10.192 8.012a2.956 2.956 0 01-4.634 2.437 2.957 2.957 0 014.117-4.108c.337.492.517 1.075.517 1.671z" fill="#69B0EE"/><path d="M7.617 7.822a.593.593 0 100-1.185.593.593 0 000 1.185zM6.639 8.66a.264.264 0 100-.529.264.264 0 000 .529z" fill="#EEE"/><path d="M2.046 5.641a.503.503 0 100-1.006.503.503 0 000 1.006z" fill="#EF5261"/><path d="M12.225 9.083a3.9 3.9 0 01-.751 2.307h-.55a3.916 3.916 0 000-5.222 3.905 3.905 0 011.3 2.915z" fill="#464956"/><path d="M11.473 11.39a3.918 3.918 0 01-6.094.302 3.916 3.916 0 005.53-.287l.014-.015h.55z" fill="#BBBBCD"/></svg>