<svg width="14" height="14" viewBox="0 0 14 14" fill="none" xmlns="http://www.w3.org/2000/svg"><path d="M13.106 3.87v6.248a.614.614 0 01-.195.45h-.001c-.096.093.06-.024-5.91 3.432l-5.796-3.347a.618.618 0 01-.31-.535v-6.19c0-.155.042-.306.118-.436l.003-.006a.871.871 0 01.316-.313L6.676.087a.648.648 0 01.648 0l.53.306 4.866 2.81a.774.774 0 01.386.667z" fill="#96C8EF"/><path d="M13.106 3.87v6.248a.615.615 0 01-.195.45h-.001c-.096.093.06-.024-5.91 3.432l-5.796-3.347a.618.618 0 01-.31-.535v-6.19c0-.155.042-.306.118-.436l.746.426L7 6.916l6.002-3.432a.77.77 0 01.104.386z" fill="#3D9AE2"/><path d="M1.015 3.486L7 6.916v6.068L.894 9.458v-5.53c0-.155.042-.306.118-.436l.003-.006z" fill="#5AAAE7"/><path d="M13.106 3.87v6.248a.618.618 0 01-.31.535L7 14V6.916l6.002-3.432a.77.77 0 01.104.386z" fill="#1A6FB0"/><path d="M13.106 3.87V9.1a.618.618 0 01-.31.536L7 12.984V6.916l6.002-3.432a.77.77 0 01.104.386z" fill="#1E81CE"/></svg>