<svg width="14" height="14" viewBox="0 0 14 14" fill="#EA8692" xmlns="http://www.w3.org/2000/svg"><path d="M14 5.133c0 4.2-7 7.467-7 7.467s-3.938-1.838-5.906-4.528C.437 7.175 0 6.183 0 5.133a3.735 3.735 0 017-1.808c1.48-2.668 5.363-2.53 6.651.23.013.013.349.702.349 1.578z"/><path d="M13.708 4.18c0 1.925-1.604 3.637-3.208 4.866a5.26 5.26 0 01-6.404.01C2.535 7.862.875 6.138.875 4.18c0-.799.274-1.534.733-2.116A3.735 3.735 0 017 3.325c1.477-2.663 5.361-2.534 6.651.23.003.004.057.287.057.625z" fill="#FE929F"/><g fill="#FFA4B8"><path d="M12.43 4.258a.467.467 0 00-.865.35c.545 1.344-1.287 3.057-2.438 3.946a.467.467 0 00.57.739c1.593-1.231 3.487-3.178 2.733-5.035zM10.617 3.778c.18.046.212.092.35.092a.467.467 0 00.175-.9 2.322 2.322 0 00-.292-.096.467.467 0 10-.233.904z"/></g></svg>