<svg width="16" height="16" viewBox="0 0 16 16" fill="#FFDC64" xmlns="http://www.w3.org/2000/svg"><path d="M15.623 5.883l-5.183-.48L8.381.622a.415.415 0 00-.762 0L5.56 5.402l-5.182.48a.415.415 0 00-.236.726l3.91 3.435-1.144 5.077a.415.415 0 00.617.448L8 12.912l4.475 2.657a.415.415 0 00.617-.448l-1.144-5.077 3.91-3.435a.415.415 0 00-.236-.726z"/><path d="M8.381.622a.415.415 0 00-.762 0L5.56 5.402l-5.182.481a.415.415 0 00-.236.726l3.91 3.435-1.144 5.077a.415.415 0 00.617.448l.999-.593c.138-5.69 2.782-9.698 4.875-11.99L8.381.622z" fill="#FFC850"/></svg>