<svg width="16" height="16" viewBox="0 0 16 16" fill="#0002" xmlns="http://www.w3.org/2000/svg"><path d="M1.214 8.01L.23 7.546A.161.161 0 000 7.69V9.9l1.214-.6.29-.605-.29-.684z" fill="#A6AEC4"/><path d="M.23 10.329l1-.466V9.27L0 9.857v.326c0 .119.123.197.23.146z" fill="#959DB0"/><g fill="#454D58"><circle cx="4.74" cy="4.88" r="1.98"/><circle cx="9.48" cy="4.05" r="2.82"/><path d="M1.23 8.01h1.28v1.86H1.23zM16 7.133c0-.123-.132-.2-.239-.142l-3.135 1.727-.29 1.145.29 1.147 1.687 1.22 1.687.638V7.133z"/></g><path d="M12.626 11.59l3.135 1.727c.107.059.24-.019.24-.142v-.307l-3.375-1.858-.29.317.29.264z" fill="#3C434C"/><g fill="#A6AEC4"><rect x="2.5" y="6.85" width="10.13" height="7.93" rx=".9"/><circle cx="4.74" cy="4.88" r=".625"/><circle cx="9.48" cy="4.05" r=".99"/></g><rect x="4.98" y="8.46" width="5.18" height="3.28" rx=".35" fill="#BED8FB"/><path d="M4.746 6.28a1.98 1.98 0 01-1.959-1.69 1.98 1.98 0 103.917 0 1.98 1.98 0 01-1.958 1.69z"/><path d="M9.475 6.28a2.825 2.825 0 01-2.81-2.535 2.825 2.825 0 105.62 0 2.825 2.825 0 01-2.81 2.534zM1.23 9.28h1.28v.58H1.23zM4.746 4.929a.63.63 0 01-.559-.34.63.63 0 101.117 0 .63.63 0 01-.558.34z"/><path d="M9.475 4.446a.992.992 0 01-.948-.701.99.99 0 101.896 0 .992.992 0 01-.948.7zM11.756 14.21h-8.39a.87.87 0 01-.87-.87v.58c0 .48.389.87.87.87h8.39c.48 0 .87-.39.87-.87v-.58c0 .48-.39.87-.87.87z"/><path d="M9.827 11.198H5.295a.323.323 0 01-.323-.323v.581c0 .178.145.323.323.323h4.532a.323.323 0 00.322-.323v-.58a.323.323 0 01-.322.322z" fill="#A3CAF7"/><g fill="#B3E59F"><path id="prefix__a" d="M8.864 12.871a.242.242 0 100 .485h.604a.242.242 0 100-.485h-.604z"/><use href="#prefix__a" fill="#DF667C" transform="translate(-1.61)"/><use href="#prefix__a" fill="#EACC73" transform="translate(-3.22)"/></g></svg>