<svg width="1857" height="296" viewBox="0 0 1857 296" fill="#F22592" xmlns="http://www.w3.org/2000/svg"><path d="M.376 126v164h55.6V161.6l75.2 128.4h63.2l-72.4-128.8c34.4-14.4 54.4-44.4 54.4-77.6 0-46-38.4-83.6-87.6-83.6-32 0-58.4 13.2-73.6 36.4C1.176 58 .376 84 .376 116v10zm52-42.4c0-20.4 16.4-37.2 36.4-37.2s36 16.4 36 37.2c0 20.8-16 37.6-36 37.6s-36.4-17.2-36.4-37.6zm286.844 88.8h-81.6c4.8-19.2 20-30.4 40.8-30.4 20.8 0 36.8 12 40.8 30.4zm29.6 92l-32.4-36.4c-12.4 10.4-22 16.8-35.6 16.8-22.8 0-40.4-14-46.4-37.2h141.2v-2.8c0-65.2-42.4-107.6-97.2-107.6-26 0-50.4 10-68.8 28.8s-28.4 43.6-28.4 70 10 51.6 28.4 70.4c18.4 18.8 42.8 28.8 68.8 28.8 26.4 0 48.8-10 70.4-30.8zm193.912-68c0 27.6-20.4 48-45.6 48-25.6 0-46.4-21.2-46.4-48s20.8-48.8 46.4-48.8c25.2 0 45.6 20.8 45.6 48.8zm22.4 61.2l11.2 32.4h58l-35.6-100c-9.2-26-16.8-48.8-33.6-65.2-18.8-18.4-42.4-28-70-28-25.6 0-50.4 10.4-68.8 29.2-18.4 18.4-28.4 43.6-28.4 70 0 26.8 10 51.6 28.4 70 18.4 18.8 43.2 29.2 69.6 29.2 29.6 0 52.4-12 69.2-37.6zm249.36 4.4l-37.2-34.8c-7.6 10.4-20.4 16.8-34.8 16.8-25.6 0-46-20.8-46-46.8 0-26.8 19.6-49.2 46-49.2 16 0 28 6.4 38 20.4l35.6-36.4c-20-23.2-45.6-34.8-74-34.8-26 0-50.4 10-68.8 28.8s-28.4 43.6-28.4 70 10 51.6 28.4 70.4c18.4 18.8 42.8 28.8 68.8 28.8 27.6 0 52.4-11.2 72.4-33.2zm127.778 30.4v-54c-22.4-2.8-34-18-34-44.4v-41.2h34v-51.6h-34V57.6h-54v43.6h-20.4v51.6h20.4v46.4c0 55.2 33.6 92 88 93.2zm34.643-96.4c0 26.4 10.797 51.6 29.197 70.4 18.8 18.8 42.8 28.8 69.2 28.8 26.4 0 50.8-10 69.6-28.8 18.4-18.8 28.4-43.6 28.4-70.4 0-26.4-10-51.2-28.4-70-18.4-18.8-43.6-28.8-69.6-28.8-26 0-50.8 10-69.2 28.8-18.4 18.8-29.197 43.6-29.197 70zm51.997.4c0-27.2 20.8-48.8 46-48.8s46.4 21.6 46.4 48.8c0 26.8-20.8 48-46.4 48-25.2 0-46-21.2-46-48zm180.25 93.6h52.8v-79.2c0-40.4 2.8-58.4 34-59.6V96.8c-61.2 4.4-86.8 38.4-86.8 107.2v86zm123.93 0h50.8v-68.8c2.4 0 4.4-.4 6.8-.4 34.8 0 50 21.2 50 66v3.2h49.2c.4-4.8.4-9.6.4-14 0-51.6-19.2-82.4-58.4-93.6l66.8-80.8h-61.2l-53.6 66.8V4.8h-50.8V290zm360.61-188h-51.6v98.8c0 28.4-10.8 41.6-34.4 41.6-23.2 0-34-13.6-34-41.6V102h-50.8v99.2c0 29.2 2.4 50 20.8 68.8 15.2 15.6 37.6 25.2 62.4 25.2 58 0 87.6-31.2 87.6-94V102zm143.1 190.4v-54c-22.4-2.8-34-18-34-44.4v-41.2h34v-51.6h-34V57.6h-54v43.6h-20.4v51.6h20.4v46.4c0 55.2 33.6 92 88 93.2z"/></svg>